<?xml version="1.0" standalone="no"?>
<!DOCTYPE svg PUBLIC "-//W3C//DTD SVG 20010904//EN"
 "http://www.w3.org/TR/2001/REC-SVG-20010904/DTD/svg10.dtd">
<svg version="1.0" xmlns="http://www.w3.org/2000/svg"
 width="1772.000000pt" height="1426.000000pt" viewBox="0 0 1772.000000 1426.000000"
 preserveAspectRatio="xMidYMid meet">

<g transform="translate(0.000000,1426.000000) scale(0.100000,-0.100000)"
fill="#000000" stroke="none">
<path d="M11567 14050 c-665 -76 -1299 -617 -1956 -1668 -139 -222 -271 -449
-479 -822 -96 -173 -201 -360 -232 -415 -68 -117 -978 -1730 -1119 -1982 -53
-95 -98 -173 -101 -173 -3 0 -32 51 -64 113 -77 146 -351 641 -694 1252 -428
762 -558 998 -614 1108 -96 193 -176 295 -268 340 -35 17 -62 22 -125 22 -117
0 -213 -37 -299 -116 -82 -75 -117 -143 -124 -238 -8 -121 36 -234 183 -466
45 -71 380 -681 745 -1355 364 -674 678 -1253 696 -1286 l34 -61 -56 -79
c-161 -226 -473 -546 -697 -716 -70 -54 -199 -138 -211 -138 -7 0 -110 162
-188 295 -108 186 -320 575 -673 1235 -977 1827 -1356 2477 -1572 2694 -47 48
-68 60 -137 83 -73 25 -95 27 -231 28 -172 0 -243 -16 -373 -86 -150 -80 -258
-185 -430 -416 -341 -462 -578 -1239 -599 -1963 -19 -654 132 -1232 462 -1774
330 -543 798 -892 1520 -1134 357 -120 611 -159 974 -149 271 7 515 44 835
127 65 17 120 29 121 28 1 -2 568 -1029 1260 -2283 691 -1254 1318 -2386 1392
-2515 302 -524 452 -733 589 -819 39 -25 59 -31 103 -31 180 0 363 198 606
654 55 103 699 1255 1431 2560 732 1306 1450 2593 1594 2862 510 948 668 1233
980 1764 307 522 484 838 1017 1810 347 632 376 686 439 841 110 269 111 452
2 544 -48 41 -142 82 -228 99 -171 35 -287 38 -1109 31 -783 -7 -803 -7 -798
11 4 11 16 96 29 189 30 226 33 647 5 792 -85 448 -308 766 -688 984 -296 169
-659 252 -952 219z m361 -806 c223 -45 404 -218 486 -464 48 -145 61 -233 60
-410 -1 -223 -34 -398 -112 -585 -16 -38 -494 -905 -1062 -1925 -569 -1020
-1172 -2102 -1340 -2405 -511 -918 -695 -1225 -720 -1198 -4 4 -227 391 -495
858 -268 468 -514 894 -547 948 -82 133 -83 152 -22 264 89 165 197 348 289
494 51 80 436 750 855 1490 950 1673 1102 1929 1316 2214 309 412 648 654
1010 719 106 19 189 19 282 0z m2379 -2211 c-26 -128 -203 -490 -424 -868
-207 -353 -597 -1049 -805 -1433 -202 -376 -314 -578 -635 -1147 -279 -494
-458 -820 -608 -1105 -166 -317 -280 -522 -665 -1195 -373 -654 -350 -612
-1147 -2075 -314 -575 -616 -1136 -673 -1248 -57 -111 -106 -201 -110 -200 -5
2 -61 107 -125 233 -271 530 -903 1720 -1144 2154 -270 486 -1374 2506 -1378
2521 -3 11 39 44 134 107 76 50 176 122 223 159 140 113 327 303 470 478 74
91 141 165 147 165 18 1 108 -122 200 -274 149 -243 361 -635 738 -1365 313
-605 369 -700 480 -818 88 -94 162 -132 255 -132 167 0 311 148 515 530 88
164 151 275 308 539 152 256 215 369 365 651 168 318 270 501 572 1025 314
545 399 698 545 970 161 303 189 352 515 920 481 836 678 1198 741 1362 l24
63 155 3 c85 1 420 4 744 5 l589 2 -6 -27z m-10933 -225 c170 -240 735 -1239
1479 -2618 96 -179 260 -471 364 -650 104 -179 211 -365 238 -414 56 -103 57
-101 -49 -135 -103 -34 -202 -45 -406 -44 -290 1 -622 49 -847 122 -120 39
-384 170 -502 249 -415 278 -689 673 -816 1177 -50 197 -67 327 -72 558 -10
378 36 684 157 1047 57 172 171 440 231 546 42 73 156 223 171 224 4 0 27 -28
52 -62z"/>
</g>
</svg>
